<?xml version="1.0" encoding="utf-8"?>
<!-- Generator: Adobe Illustrator 22.1.0, SVG Export Plug-In . SVG Version: 6.00 Build 0)  -->
<!DOCTYPE svg PUBLIC "-//W3C//DTD SVG 1.1//EN" "http://www.w3.org/Graphics/SVG/1.1/DTD/svg11.dtd">
<svg version="1.1" id="Layer_1" xmlns="http://www.w3.org/2000/svg" xmlns:xlink="http://www.w3.org/1999/xlink" x="0px" y="0px"
	 viewBox="0 0 500 500.9" style="enable-background:new 0 0 500 500.9;" xml:space="preserve">
<style type="text/css">
	.st0{fill:none;stroke:#BE1E2D;stroke-width:0.5;stroke-miterlimit:10;}
	.st1{fill:none;stroke:#BE1E2D;stroke-width:0.5;stroke-miterlimit:10;stroke-dasharray:5,5;}
	.st2{fill:none;stroke:#BE1E2D;stroke-width:0.5;stroke-miterlimit:10;stroke-dasharray:4.9804,4.9804;}
	.st3{fill:#231F20;}
	.st4{fill:none;stroke:#BE1E2D;stroke-width:0.5;stroke-miterlimit:10;stroke-dasharray:5;}
	.st5{fill:#FFFFFF;}
</style>
<path class="st5" d="M381.6,248.9c0-0.1,0-0.3,0-0.4c0-0.4,0-0.7,0-1.1c-1.5-71.4-60.1-129-131.8-129
	c-71.7,0-130.2,57.5-131.8,128.9c0,0.4,0,0.8,0,1.2c0,0.2,0,0.4,0,0.5c0,0.4,0,0.8,0,1.2c0,72.7,59.1,131.8,131.8,131.8
	S381.6,323,381.6,250.3C381.6,249.8,381.6,249.4,381.6,248.9z M365.5,282.9c-6.1,17.8-53.5,36.3-115.7,36.3
	c-62.3,0-109.9-18.5-115.8-36.4c-0.1-0.4-0.2-0.8-0.3-1.3c-0.2-0.8-0.3-1.6-0.3-2.4c0-1.7,0.4-3.3,1.1-5
	c20.5,14.8,59.5,26.1,115.2,26.1c55.8,0,94.8-11.3,115.2-26.1c0.7,1.7,1.1,3.4,1.1,5c0,0.8-0.1,1.5-0.2,2.3
	C365.8,281.9,365.7,282.4,365.5,282.9z M135.2,213.8c6.4-17.8,53.3-36,114.7-36c60.7,0,107.2,17.9,114.3,35.5
	c0.2,0.7,0.4,1.4,0.7,2.1c0.2,0.8,0.3,1.7,0.3,2.5c0,1.5-0.3,3-0.9,4.5c-20.7-14.5-59.4-25.5-114.5-25.5c-55,0-93.8,11-114.4,25.5
	c-0.6-1.5-0.9-3-0.9-4.5c0-1,0.2-2.1,0.5-3.2C135,214.4,135.1,214.1,135.2,213.8z M129.6,248.9c0-0.4,0-0.8,0-1.2
	c0.2-3,1.6-5.9,4.1-8.9c3.5,3.3,7.9,6.5,13.1,9.5c-5.3,3-9.8,6.1-13.5,9.4C130.9,254.8,129.7,251.8,129.6,248.9z M249.8,227.5
	c-37.6,0-68.1,5.8-89.9,14.5c-7.4-3.3-13.4-6.9-17.7-10.6c19-12.7,58-22.9,107.5-22.9c49.5,0,88.5,10.3,107.5,22.9
	c-4.3,3.7-10.3,7.3-17.6,10.6C317.9,233.2,287.4,227.5,249.8,227.5z M322,248.4c-19.4,5.8-44.3,9.5-72.1,9.5
	c-27.9,0-52.8-3.8-72.2-9.5c19.5-5.7,44.4-9.3,72.2-9.3C277.6,239.1,302.5,242.7,322,248.4z M159.9,254.7
	c21.7,8.9,52.2,14.9,89.9,14.9c37.7,0,68.2-5.9,89.8-14.9c7.5,3.3,13.7,6.9,18.1,10.6c-18.8,12.8-58.1,23.3-108,23.3
	c-49.9,0-89.2-10.5-108-23.3C146.2,261.5,152.4,257.9,159.9,254.7z M352.9,248.3c5.2-3,9.5-6.1,13-9.4c2.5,3,3.9,6.1,4.1,9.1
	c0,0.3,0,0.6,0,1c-0.1,2.9-1.4,5.9-3.7,8.9C362.7,254.4,358.2,251.2,352.9,248.3z M249.8,130c43.1,0,81,22.8,102.2,57
	c-21.6-12.1-56.6-20.8-102.1-20.8c-45.6,0-80.7,8.6-102.3,20.8C168.8,152.8,206.7,130,249.8,130z M249.8,370.5
	c-45,0-84.3-24.9-104.9-61.6c21.6,12.7,57.7,21.9,105,21.9c47.3,0,83.3-9.1,104.9-21.9C334.1,345.6,294.8,370.5,249.8,370.5z"/>
</svg>
