<?xml version="1.0" encoding="utf-8"?>
<!-- Generator: Adobe Illustrator 22.1.0, SVG Export Plug-In . SVG Version: 6.00 Build 0)  -->
<!DOCTYPE svg PUBLIC "-//W3C//DTD SVG 1.1//EN" "http://www.w3.org/Graphics/SVG/1.1/DTD/svg11.dtd">
<svg version="1.1" id="Layer_1" xmlns="http://www.w3.org/2000/svg" xmlns:xlink="http://www.w3.org/1999/xlink" x="0px" y="0px"
	 viewBox="0 0 500 500.9" style="enable-background:new 0 0 500 500.9;" xml:space="preserve">
<style type="text/css">
	.st0{fill:none;stroke:#BE1E2D;stroke-width:0.5;stroke-miterlimit:10;}
	.st1{fill:none;stroke:#BE1E2D;stroke-width:0.5;stroke-miterlimit:10;stroke-dasharray:5,5;}
	.st2{fill:none;stroke:#BE1E2D;stroke-width:0.5;stroke-miterlimit:10;stroke-dasharray:4.9804,4.9804;}
	.st3{fill:#231F20;}
	.st4{fill:none;stroke:#BE1E2D;stroke-width:0.5;stroke-miterlimit:10;stroke-dasharray:5;}
	.st5{fill:#FFFFFF;}
</style>
<g>
	<path class="st5" d="M130.1,45.2c2.4,3.6,3.1,7.8,2.2,11.6l2.8,1.1l-1.4,3.3l-2.7-1.1c-1,1.9-2.4,3.4-4.2,4.7
		c-5.6,3.7-11.6,2.9-15.3-2.8c-4.4-6.6-3.1-15.4,3.3-19.6C120.4,38.7,126.3,39.6,130.1,45.2z M127,58.6l-3.1-1.3l1.4-3.3l2.8,1.1
		c0.2-2.3-0.6-4.8-2.1-7.1c-2.2-3.4-5.6-4.2-9-2c-4.2,2.8-4.6,8.5-1.4,13.3c2.2,3.3,5.5,4.1,8.9,1.9C125.6,60.5,126.4,59.6,127,58.6
		z M141.3,43.2l-2.7-14l4.3-2l2.8,14.3c0.9,4.2,3.4,5.6,6.7,4.1c3.6-1.7,4.3-4.5,3.5-8.7l-2.9-14.5l4.4-2.1l3,15.2
		c1.4,7-0.8,11.2-6.6,13.9C148,52.2,142.7,50.2,141.3,43.2z M182.3,12.2l11.1,22.1l-4.7,1.5l-2.7-5.5l-9.9,3.1l-1.8,6.9l-4.9,1.5
		l7.8-28L182.3,12.2z M177.3,29.1l7.1-2.2l-4.1-8.4l-0.1,0L177.3,29.1z M218.6,21.6l1.4-17.2l4.4-0.7l-2.1,25l-3.8,0.6l-10.8-16.2
		l-1.5,18.2l-4.4,0.7l2.1-25l4.7-0.8L218.6,21.6z M240.1,27.3l4.6-20.5L236,7.1l0.9-4l22.2-0.5l-0.9,4l-8.7,0.2l-4.5,20.5
		L240.1,27.3z M281.7,4.8l1.4,24.6l-4.9-0.5l-0.3-6.1l-10.3-1.1l-4.4,5.6l-5.1-0.5l18.3-22.6L281.7,4.8z M270.3,18.3l7.4,0.8
		l-0.4-9.3l-0.2,0L270.3,18.3z M344.3,35.3l-0.8,2.2l-34.3-12l0.8-2.2L344.3,35.3z M387.6,44c6,3.9,6.3,9.5,2.7,14.4l-3.9-2.3
		c2.1-3,2.2-6.5-1.5-8.8c-4.5-2.9-9.8-0.5-12.6,3.8c-2.3,3.5-1.6,7,1.5,9c3.8,2.5,7.6,1.4,10.2-1.3l3.8,2.7
		c-4.5,4.5-10.6,5.8-16.6,1.9c-5.4-3.5-6.7-9.4-3.2-14.8C372.3,42,380.7,39.5,387.6,44z M399.8,84.8c0.1-0.3,0.3-0.7,0.7-1.2
		c0.8-0.9,2.8-2.3,3.7-3.4c1.2-1.3,0.9-2.7-0.8-4.2l-4.3-3.7l-7.6,5.3l-3.6-3.1l20.6-14.4l7.8,6.8c3.9,3.4,4.8,6.9,2,10.1
		c-2.8,3.3-7.1,3-10.2,0.9c1.4,1.8,1.4,3.6,0,5.2c-0.9,1.1-3,2.5-4,3.7c-0.4,0.5-0.6,0.9-0.7,1.3L399.8,84.8z M406.6,73.8
		c2.6,2.3,5.5,3,7.6,0.6c1.3-1.5,1-3.2-1.3-5.2l-4.1-3.6l-6.5,4.5L406.6,73.8z M422.7,108.7l-12-13.7L433,83.5l11.8,13.4l-3.7,1.9
		l-8.6-9.9l-5.4,2.8l6.8,7.7l-3.7,1.9l-6.8-7.7l-5.9,3l8.9,10.1L422.7,108.7z M460.2,119.3l-18.2,16.7l-2.7-4.1l4.5-4.1l-5.7-8.7
		l-7.2,0.1l-2.8-4.3l29.1-0.2L460.2,119.3z M442.6,119.1l4.1,6.2l7-6.3l-0.1-0.1L442.6,119.1z M448.1,147.3l20.5-4.5l-3.8-7.7l4-0.9
		l9.8,19.9l-4.1,0.8l-3.9-7.8l-20.5,4.5L448.1,147.3z M484.1,169.3l-24.9,3.3l-1.8-4.5l24.9-3.3L484.1,169.3z M465,190.1l22.7-9.4
		l1.2,4.7l-17.3,6.9l0,0.1l20.8,6.9l1.3,4.9l-27.5-9.2L465,190.1z M472.6,231.4l-2.2-18.1l24.9,3.1l2.1,17.8l-4.1-0.5l-1.6-13
		l-6.1-0.8l1.2,10.2l-4.1-0.5l-1.2-10.2l-6.6-0.8l1.6,13.4L472.6,231.4z M482.6,261.3c-4-0.9-6.3,1.6-6.6,5.5
		c-0.2,2.9,0.9,4.8,3.1,4.9c1.6,0.1,2.4-0.9,3.2-3l1.4-3.9c1.1-3.1,3.2-5,6.5-4.8c4.7,0.3,7.6,4.3,7.2,10.1c-0.4,6-4.2,10-10.2,8.9
		l0.5-4.5c3.1,0.6,5.7-1.1,6-4.9c0.2-2.7-0.8-4.4-3-4.5c-1.6-0.1-2.4,0.9-3.1,2.7l-1.2,3.2c-1.4,3.9-3.6,6-6.9,5.7
		c-5.3-0.4-7.6-5.1-7.2-10.4c0.5-6.8,4.6-10.8,10.8-9.6L482.6,261.3z M470,289.4l1-4.7l22.6,10.9l-1.9,9c-1.1,5.2-4.4,7.5-8.4,6.6
		c-6-1.2-7.9-6.5-6.5-13.3l1-4.8L470,289.4z M480.5,299.2c-0.8,3.8,0.1,6.6,3.4,7.2c2.3,0.5,3.6-0.7,4.2-3.6l0.9-4.3l-7.5-3.6
		L480.5,299.2z M481.8,337.8l-24.3-4.3l1.6-4.7l6,1.1l3.4-9.8l-4.4-5.6l1.7-4.8l17.8,23L481.8,337.8z M471.3,323.6l-2.4,7l9.2,1.7
		l0-0.1L471.3,323.6z M469.6,365.9c-3.2,6.3-8.8,7.2-14.1,4.1l1.9-4.1c3.2,1.8,6.6,1.5,8.6-2.4c2.4-4.8-0.5-9.8-5.1-12.2
		c-3.7-1.9-7.1-0.9-8.8,2.5c-2.1,4-0.6,7.7,2.3,10l-2.3,4c-5-4-6.9-10-3.6-16.4c2.9-5.7,8.7-7.6,14.4-4.7
		C470,350.4,473.4,358.6,469.6,365.9z M428.8,384.4l10.4-14.9l16.5,18.9L445.5,403l-2.7-3.1l7.5-10.8l-4-4.6l-5.9,8.4l-2.7-3.1
		l5.9-8.4l-4.3-5l-7.7,11L428.8,384.4z M369.6,455.9c-2.4-3.6-3-7.9-2.2-11.6l-2.8-1.1l1.4-3.3l2.7,1.1c1-1.9,2.4-3.4,4.3-4.7
		c5.6-3.7,11.6-2.9,15.3,2.8c4.4,6.7,3.1,15.4-3.4,19.6C379.3,462.4,373.3,461.6,369.6,455.9z M372.7,442.5l3.1,1.3l-1.4,3.3
		l-2.8-1.1c-0.2,2.3,0.5,4.8,2.1,7.1c2.2,3.4,5.6,4.2,9,2c4.2-2.7,4.6-8.5,1.4-13.3c-2.2-3.3-5.5-4.1-8.9-1.9
		C374.1,440.6,373.3,441.5,372.7,442.5z M358.3,457.9l2.7,14l-4.3,2l-2.8-14.4c-0.8-4.2-3.4-5.7-6.7-4.1c-3.6,1.7-4.4,4.5-3.5,8.7
		l2.8,14.6l-4.4,2l-3-15.2c-1.4-7,0.9-11.2,6.6-13.9C351.7,448.9,357,450.9,358.3,457.9z M317.3,488.9l-11-22.1l4.7-1.5l2.7,5.5
		l9.9-3.1l1.9-6.9l4.9-1.5l-7.9,28L317.3,488.9z M322.4,472l-7.1,2.2l4.1,8.4l0.1,0L322.4,472z M281,479.4l-1.4,17.2l-4.4,0.7
		l2.1-25l3.8-0.6l10.8,16.2l1.5-18.2l4.4-0.7l-2.1,25l-4.7,0.8L281,479.4z M259.5,473.6l-4.6,20.5l8.6-0.2l-0.9,4l-22.2,0.5l1-4
		l8.7-0.2l4.6-20.5L259.5,473.6z M217.9,496.1l-1.4-24.7l4.9,0.5l0.3,6.1l10.3,1.1l4.4-5.6l5.1,0.5l-18.3,22.6L217.9,496.1z
		 M229.3,482.6l-7.4-0.8l0.4,9.3l0.2,0L229.3,482.6z M155.3,465.4l0.8-2.2l34.3,12.1l-0.8,2.2L155.3,465.4z M112,456.7
		c-6-3.9-6.3-9.5-2.6-14.5l3.9,2.3c-2.1,3-2.2,6.4,1.4,8.8c4.5,2.9,9.8,0.5,12.6-3.8c2.3-3.5,1.6-7-1.5-9c-3.8-2.5-7.6-1.4-10.2,1.2
		l-3.8-2.7c4.5-4.5,10.7-5.8,16.6-1.9c5.3,3.5,6.7,9.4,3.2,14.8C127.4,458.7,118.9,461.2,112,456.7z M100,415.9
		c-0.1,0.3-0.3,0.7-0.7,1.2c-0.8,0.9-2.8,2.3-3.7,3.4c-1.2,1.3-0.9,2.7,0.8,4.2l4.3,3.7l7.6-5.3l3.6,3.1l-20.6,14.3l-7.8-6.8
		c-3.9-3.4-4.8-6.9-2-10.1c2.8-3.3,7.1-3,10.2-0.8c-1.4-1.8-1.4-3.6,0-5.2c0.9-1.1,3-2.5,4-3.7c0.4-0.5,0.6-0.9,0.7-1.3L100,415.9z
		 M93.2,426.9c-2.6-2.3-5.5-3-7.6-0.6c-1.3,1.5-1,3.2,1.3,5.1l4.1,3.6l6.5-4.5L93.2,426.9z M77,391.9l12,13.7l-22.3,11.5l-11.8-13.4
		l3.7-1.9l8.6,9.9l5.4-2.8l-6.8-7.7l3.7-1.9l6.8,7.7l5.9-3l-8.9-10.1L77,391.9z M39.6,381.2l18.2-16.7l2.7,4.1l-4.5,4.1l5.7,8.7
		l7.1-0.1l2.8,4.3l-29.1,0.1L39.6,381.2z M57.3,381.5l-4.1-6.2l-7,6.2l0.1,0.1L57.3,381.5z M51.8,353.3l-20.5,4.4l3.8,7.7l-4.1,0.9
		l-9.8-19.9l4.1-0.8l3.9,7.8l20.5-4.5L51.8,353.3z M15.6,330.3l25-2.4l1.6,4.6l-25,2.4L15.6,330.3z M34.9,310.5l-22.8,9.3l-1.2-4.7
		l17.3-6.9l0-0.2l-20.8-6.9l-1.3-4.9l27.5,9.2L34.9,310.5z M27.4,269.2l2.1,18.1l-24.9-3.2l-2.1-17.7l4.1,0.5l1.5,13l6,0.8L13,270.4
		l4.1,0.5l1.2,10.2l6.6,0.9l-1.6-13.4L27.4,269.2z M17.4,239.2c4,0.9,6.3-1.6,6.6-5.5c0.2-2.9-0.8-4.8-3.1-5c-1.6-0.1-2.4,0.9-3.2,3
		l-1.4,3.9c-1.1,3.1-3.2,5-6.5,4.8c-4.7-0.3-7.6-4.3-7.2-10.1c0.4-6,4.2-10,10.3-8.9l-0.5,4.5c-3.1-0.6-5.7,1.1-6,4.9
		c-0.2,2.7,0.8,4.4,3,4.5c1.6,0.1,2.4-0.9,3.1-2.7l1.2-3.2c1.5-3.9,3.6-6,6.9-5.7c5.3,0.4,7.6,5.1,7.2,10.4
		c-0.5,6.8-4.6,10.8-10.8,9.6L17.4,239.2z M30.1,211.2l-1,4.7L6.5,205l1.9-9c1.1-5.2,4.4-7.5,8.5-6.6c6,1.3,7.9,6.5,6.5,13.3l-1,4.8
		L30.1,211.2z M19.6,201.4c0.8-3.8-0.1-6.6-3.3-7.3c-2.3-0.5-3.6,0.7-4.2,3.6l-0.9,4.3l7.5,3.6L19.6,201.4z M18.3,162.8l24.3,4.3
		l-1.6,4.7l-6-1.1l-3.4,9.8l4.4,5.6l-1.7,4.8l-17.8-23L18.3,162.8z M28.9,177l2.4-7l-9.2-1.7l-0.1,0.1L28.9,177z M30.6,134.7
		c3.2-6.3,8.8-7.2,14.1-4.1l-1.9,4.1c-3.2-1.8-6.6-1.5-8.6,2.4c-2.4,4.8,0.5,9.8,5.1,12.2c3.7,1.9,7.1,0.9,8.8-2.4
		c2.1-4,0.6-7.7-2.3-10l2.3-4c5,4,6.9,10,3.6,16.4c-2.9,5.7-8.7,7.6-14.4,4.7C30.2,150.2,26.8,142,30.6,134.7z M71.4,116.3L61,131.2
		l-16.5-18.9l10.2-14.6l2.7,3.1l-7.5,10.7l4,4.6l5.9-8.4l2.7,3.1l-5.9,8.4l4.3,5l7.7-11L71.4,116.3z M92.2,73.2
		c4.9,4.9,5.9,13,0.7,18.1c-4.3,4.2-9.6,4.5-13.9,0.2c-4.9-4.9-5.9-13-0.7-18.1C82.6,69.2,88,68.9,92.2,73.2z M90,75.4
		c-2.9-3-6.7-3.3-9.8-0.2c-3.9,3.8-2.9,9.9,1.1,14c2.9,2.9,6.7,3.2,9.8,0.2C95,85.6,94.1,79.5,90,75.4z M89.7,84.6
		c-0.1,0-0.2-0.1-0.4-0.3c-0.3-0.3-0.8-1.1-1.1-1.4c-0.5-0.5-0.9-0.4-1.5,0.2l-1.5,1.5l1.7,2.9l-1.2,1.2L81,80.7l2.7-2.6
		c1.3-1.3,2.6-1.5,3.7-0.5c1.1,1.1,0.9,2.7,0,3.7c0.7-0.5,1.3-0.4,1.9,0.1c0.4,0.4,0.8,1.2,1.2,1.6c0.2,0.2,0.3,0.3,0.5,0.3
		L89.7,84.6z M85.9,81.8c0.9-0.9,1.2-1.9,0.4-2.8c-0.5-0.5-1.1-0.4-1.9,0.3L83,80.7l1.5,2.5L85.9,81.8z M407,427
		c-4.9-4.9-5.9-13-0.7-18.1c4.3-4.2,9.6-4.5,13.9-0.2c4.9,4.9,5.9,13,0.7,18.1C416.6,431.1,411.2,431.3,407,427z M409.2,424.8
		c2.9,3,6.7,3.3,9.8,0.2c3.9-3.8,2.9-9.9-1.1-14c-2.9-2.9-6.7-3.2-9.8-0.2C404.3,414.6,405.2,420.7,409.2,424.8z M409.6,415.7
		c0.1,0,0.2,0.1,0.4,0.3c0.3,0.3,0.8,1.1,1.1,1.4c0.5,0.5,0.9,0.4,1.5-0.2l1.5-1.5l-1.7-2.9l1.2-1.2l4.7,7.9l-2.7,2.6
		c-1.3,1.3-2.6,1.5-3.7,0.5c-1.1-1.1-0.9-2.7,0-3.7c-0.7,0.5-1.3,0.4-1.9-0.1c-0.4-0.4-0.8-1.2-1.2-1.6c-0.2-0.2-0.3-0.3-0.5-0.3
		L409.6,415.7z M413.4,418.4c-0.9,0.9-1.2,1.9-0.4,2.8c0.5,0.5,1.1,0.4,1.9-0.3l1.4-1.4l-1.5-2.5L413.4,418.4z"/>
</g>
</svg>
